# xmcd
#
# Track frame offsets:
#	150
#	40299
#	46081
#	61749
#	91327
#	118270
#	144416
#	151239
#	173280
#	193915
#
# Disc length: 2893 seconds
# Revision: 0
# Processed by: cddbd v1.5.2PL0 Copyright (c) Steve Scherf et al.
# Submitted via: dBpowerAMP V12.0
#
DISCID=7b0b4b0a
DTITLE=Various Artist - Live in Miami
DYEAR=2002
DGENRE=R&B
TTITLE0=Marvin Gaye - Got To Give It Up
TTITLE1=Marvin Gaye/Ross/Ware - After the Dance (Interlude)
TTITLE2=Marvin Gaye - Come Get To This
TTITLE3=Marvin Gaye/Townend - Let's Get It On
TTITLE4=Marvin Gaye/Ross/Ware - After the Dance
TTITLE5=Marvin Gaye - If This World Were Mine
TTITLE6=Ashford/Simpson - Ain't No Mountain High Enough
TTITLE7=Dozier/Holland/Holland - How Sweet It is (To Be Loved By You)
TTITLE8=Ross/Ware - I Want You
TTITLE9=Marvin Gaye/James Jr Nyx - Inner City Blues (Make Me Wanna Holler)
EXTD=
EXTT0=
EXTT1=
EXTT2=
EXTT3=
EXTT4=
EXTT5=
EXTT6=
EXTT7=
EXTT8=
EXTT9=
PLAYORDER=
